<svg width="817" height="274" viewBox="0 0 817 274" fill="none" xmlns="http://www.w3.org/2000/svg">

<g id="Vorsorgeslide22_final1000Transparent 1">
<g id="Slide2V (2) (3) 1">
<g id="Frame 1">
<g id="Slide2V">
<g id="Group 1">
<g id="Frame 2">
<g id="Klick2">
<g id="Text2">
<path id="Vector" d="M534.647 268.965C534.149 268.965 533.72 268.797 533.359 268.461C533.01 268.113 532.836 267.671 532.836 267.135C532.836 266.6 533.01 266.171 533.359 265.847C533.72 265.511 534.149 265.343 534.647 265.343C535.157 265.343 535.587 265.511 535.935 265.847C536.284 266.171 536.458 266.6 536.458 267.135C536.458 267.671 536.284 268.113 535.935 268.461C535.587 268.797 535.157 268.965 534.647 268.965Z" fill="black"/>
<path id="Vector_2" d="M526.185 269.04C525.301 269.04 524.485 268.878 523.739 268.555C523.004 268.218 522.4 267.745 521.927 267.135L523.608 265.119C523.969 265.592 524.349 265.953 524.747 266.202C525.145 266.438 525.575 266.557 526.035 266.557C527.268 266.557 527.884 265.835 527.884 264.39V258.172H523.29V255.745H530.89V264.222C530.89 265.841 530.492 267.048 529.695 267.845C528.899 268.642 527.728 269.04 526.185 269.04Z" fill="black"/>
<path id="Vector_3" d="M511.005 269.04C510.096 269.04 509.194 268.922 508.297 268.685C507.413 268.436 506.654 268.088 506.019 267.64L507.214 265.324C507.712 265.685 508.285 265.971 508.932 266.183C509.592 266.395 510.258 266.501 510.93 266.501C511.69 266.501 512.287 266.351 512.723 266.052C513.159 265.754 513.376 265.337 513.376 264.801C513.376 264.465 513.289 264.166 513.115 263.905C512.941 263.644 512.629 263.444 512.181 263.307C511.746 263.171 511.129 263.102 510.333 263.102H506.99L507.662 255.745H515.636V258.172H508.745L510.314 256.791L509.847 262.038L508.279 260.656H511.042C512.337 260.656 513.376 260.836 514.161 261.197C514.957 261.546 515.536 262.025 515.897 262.635C516.258 263.245 516.439 263.936 516.439 264.708C516.439 265.48 516.246 266.196 515.86 266.855C515.474 267.503 514.876 268.032 514.067 268.443C513.271 268.841 512.25 269.04 511.005 269.04Z" fill="black"/>
<path id="Vector_4" d="M500.516 269.04C499.321 269.04 498.281 268.791 497.398 268.293C496.526 267.795 495.854 267.067 495.381 266.108C494.908 265.15 494.671 263.967 494.671 262.561C494.671 261.054 494.951 259.778 495.512 258.733C496.084 257.687 496.868 256.89 497.864 256.342C498.873 255.795 500.03 255.521 501.338 255.521C502.035 255.521 502.701 255.596 503.336 255.745C503.97 255.894 504.518 256.118 504.979 256.417L503.858 258.639C503.497 258.39 503.111 258.222 502.701 258.135C502.29 258.035 501.86 257.986 501.412 257.986C500.279 257.986 499.383 258.328 498.723 259.013C498.064 259.697 497.734 260.712 497.734 262.056C497.734 262.28 497.734 262.529 497.734 262.803C497.746 263.077 497.783 263.351 497.846 263.625L497.005 262.841C497.242 262.355 497.547 261.951 497.92 261.627C498.294 261.291 498.736 261.042 499.246 260.88C499.769 260.706 500.342 260.619 500.964 260.619C501.811 260.619 502.57 260.787 503.242 261.123C503.914 261.459 504.45 261.932 504.848 262.542C505.259 263.152 505.464 263.868 505.464 264.689C505.464 265.573 505.24 266.345 504.792 267.005C504.356 267.652 503.765 268.156 503.018 268.517C502.284 268.866 501.45 269.04 500.516 269.04ZM500.348 266.781C500.771 266.781 501.145 266.706 501.468 266.557C501.804 266.395 502.066 266.164 502.253 265.866C502.439 265.567 502.533 265.225 502.533 264.839C502.533 264.241 502.327 263.768 501.916 263.419C501.518 263.058 500.983 262.878 500.311 262.878C499.862 262.878 499.47 262.965 499.134 263.139C498.798 263.301 498.53 263.532 498.331 263.83C498.144 264.117 498.051 264.453 498.051 264.839C498.051 265.212 498.144 265.548 498.331 265.847C498.518 266.133 498.779 266.364 499.115 266.538C499.452 266.7 499.862 266.781 500.348 266.781Z" fill="black"/>
</g>
</g>
<g id="Klick3">
<path id="text96" d="M183.367 141.098L182.25 140.633L182.742 139.317C182.209 139.064 181.745 138.742 181.35 138.349C180.968 137.951 180.651 137.476 180.4 136.924C180.027 136.104 179.887 135.27 179.981 134.422C180.082 133.555 180.381 132.768 180.88 132.06C181.372 131.34 182.022 130.796 182.83 130.428C183.355 130.188 183.896 130.049 184.452 130.013C185.014 129.957 185.58 130.009 186.147 130.168L186.681 128.74L187.788 129.233L187.265 130.634C187.74 130.897 188.148 131.214 188.487 131.586C188.821 131.944 189.098 132.367 189.32 132.855C189.687 133.662 189.821 134.5 189.72 135.366C189.632 136.227 189.342 137.018 188.849 137.738C188.363 138.439 187.711 138.977 186.89 139.352C186.403 139.574 185.91 139.714 185.41 139.772C184.91 139.829 184.404 139.805 183.891 139.698L183.367 141.098ZM183.203 138.084L185.695 131.419C185.283 131.329 184.883 131.302 184.498 131.339C184.125 131.369 183.753 131.47 183.381 131.639C182.779 131.914 182.295 132.313 181.929 132.836C181.57 133.34 181.357 133.91 181.29 134.544C181.23 135.16 181.337 135.769 181.611 136.372C181.78 136.744 181.995 137.079 182.255 137.379C182.522 137.659 182.838 137.895 183.203 138.084ZM186.339 138.14C186.928 137.871 187.403 137.484 187.761 136.98C188.127 136.457 188.346 135.885 188.419 135.263C188.486 134.628 188.383 134.01 188.109 133.407C187.963 133.087 187.781 132.806 187.563 132.565C187.352 132.305 187.102 132.078 186.813 131.885L184.362 138.438C184.694 138.488 185.028 138.49 185.364 138.445C185.693 138.388 186.019 138.286 186.339 138.14Z" fill="#202122"/>
<path id="text96 (Stroke)" fill-rule="evenodd" clip-rule="evenodd" d="M186.518 128.348L188.156 129.079L187.622 130.506C188.032 130.757 188.392 131.051 188.701 131.388C189.057 131.772 189.351 132.221 189.584 132.734C189.973 133.588 190.115 134.478 190.009 135.398C189.915 136.306 189.608 137.143 189.089 137.902L189.088 137.903C188.571 138.65 187.876 139.221 187.011 139.616C186.498 139.85 185.975 139.999 185.443 140.06C184.992 140.112 184.536 140.101 184.077 140.028L183.533 141.483L181.88 140.793L182.379 139.459C181.916 139.213 181.505 138.912 181.145 138.555L181.14 138.551C180.733 138.126 180.399 137.623 180.136 137.045C179.742 136.18 179.592 135.293 179.692 134.39V134.388C179.799 133.474 180.115 132.642 180.641 131.895C181.164 131.131 181.855 130.553 182.709 130.163C183.264 129.91 183.837 129.763 184.428 129.723C184.94 129.673 185.453 129.706 185.966 129.822L186.518 128.348ZM182.95 130.692C182.19 131.039 181.581 131.549 181.119 132.224L181.117 132.228C180.647 132.895 180.365 133.636 180.269 134.454C180.182 135.247 180.311 136.028 180.664 136.804C180.902 137.327 181.2 137.773 181.557 138.145C181.927 138.512 182.363 138.815 182.866 139.054L183.108 139.168L182.62 140.472L183.201 140.714L183.706 139.363L183.95 139.414C184.434 139.514 184.909 139.537 185.377 139.483C185.845 139.429 186.309 139.297 186.77 139.087C187.545 138.733 188.156 138.229 188.61 137.573C189.075 136.893 189.348 136.149 189.431 135.337V135.333C189.526 134.52 189.402 133.736 189.055 132.975C188.846 132.514 188.585 132.118 188.274 131.784L188.273 131.782C187.956 131.435 187.574 131.137 187.124 130.888L186.905 130.767L187.42 129.388L186.845 129.131L186.326 130.52L186.069 130.448C185.534 130.298 185.005 130.25 184.48 130.302L184.471 130.303C183.951 130.337 183.445 130.466 182.95 130.692ZM181.692 132.668C182.088 132.102 182.613 131.67 183.261 131.375C183.659 131.193 184.064 131.083 184.472 131.049C184.89 131.01 185.319 131.039 185.758 131.135L186.085 131.207L183.36 138.494L183.069 138.342C182.677 138.139 182.335 137.885 182.045 137.579L182.035 137.57C181.757 137.249 181.527 136.889 181.347 136.492C181.053 135.847 180.935 135.186 181.001 134.516V134.514C181.074 133.831 181.304 133.214 181.692 132.668ZM183.501 131.904C182.944 132.158 182.502 132.524 182.167 133.002L182.165 133.004C181.837 133.466 181.641 133.987 181.579 134.573C181.524 135.134 181.621 135.692 181.875 136.251C182.032 136.596 182.231 136.907 182.47 137.183C182.641 137.362 182.834 137.521 183.051 137.661L185.301 131.645C185.034 131.609 184.776 131.604 184.525 131.628H184.521C184.185 131.656 183.845 131.747 183.501 131.904ZM186.669 131.44L186.974 131.643C187.284 131.851 187.554 132.095 187.783 132.375C188.021 132.639 188.217 132.944 188.373 133.287C188.668 133.935 188.781 134.605 188.708 135.293V135.297C188.629 135.967 188.392 136.585 187.999 137.146L187.998 137.148C187.608 137.696 187.093 138.115 186.459 138.404C186.118 138.56 185.769 138.67 185.413 138.732L185.402 138.734C185.039 138.782 184.678 138.779 184.319 138.725L183.964 138.672L186.669 131.44ZM184.767 138.184C184.95 138.191 185.135 138.182 185.32 138.158C185.622 138.105 185.921 138.011 186.219 137.875C186.764 137.627 187.196 137.273 187.524 136.813C187.862 136.329 188.063 135.803 188.131 135.231C188.192 134.651 188.098 134.085 187.844 133.528C187.71 133.232 187.544 132.977 187.347 132.76L187.342 132.754L187.337 132.748C187.221 132.605 187.092 132.473 186.948 132.351L184.767 138.184Z" fill="#202122"/>
<g id="Text3.1">
<path id="text102" d="M199.49 126.527L206.033 123.541L207.147 125.989L200.604 128.974L199.49 126.527ZM202.269 132.015L209.666 128.639L210.815 131.165L200.292 135.966L194.105 122.369L204.375 117.683L205.524 120.208L198.379 123.468L202.269 132.015Z" fill="#202122"/>
</g>
<g id="text108">
<path id="Vector_12" d="M299.277 79.3737C300.002 79.0429 300.714 78.8957 301.414 78.9319C302.121 78.9516 302.775 79.1868 303.377 79.6375C303.973 80.0769 304.483 80.7611 304.906 81.6902L307.288 86.925L304.638 88.1342L302.441 83.3073C302.106 82.5708 301.694 82.1019 301.206 81.9005C300.729 81.6939 300.196 81.725 299.607 81.9937C299.188 82.1849 298.85 82.4486 298.593 82.785C298.342 83.1048 298.202 83.4899 298.175 83.9403C298.159 84.3856 298.279 84.8915 298.537 85.458L300.594 89.979L297.944 91.1882L293.783 82.0443L296.315 80.8894L297.467 83.4218L296.643 82.874C296.693 82.1123 296.949 81.4276 297.411 80.82C297.873 80.2123 298.495 79.7302 299.277 79.3737Z" fill="black"/>
<path id="Vector_13" d="M291.825 94.1445C290.783 94.62 289.773 94.8346 288.794 94.7884C287.827 94.737 286.969 94.4583 286.219 93.9522C285.463 93.4347 284.88 92.7227 284.467 91.8163C284.05 90.8985 283.89 89.9927 283.99 89.099C284.095 88.1888 284.426 87.3675 284.982 86.635C285.532 85.8912 286.272 85.3075 287.201 84.8837C288.095 84.4755 288.987 84.3012 289.876 84.3609C290.771 84.4041 291.59 84.687 292.334 85.2097C293.073 85.721 293.666 86.4695 294.115 87.4553C294.161 87.5573 294.21 87.6788 294.26 87.82C294.306 87.9498 294.349 88.0739 294.389 88.1924L286.965 91.5797L286.261 90.033L292.292 87.2813L291.482 88.2053C291.265 87.7294 290.981 87.3598 290.628 87.0964C290.276 86.833 289.886 86.6825 289.458 86.6449C289.026 86.5959 288.583 86.6748 288.13 86.8815C287.677 87.0882 287.321 87.3736 287.063 87.7378C286.811 88.0854 286.671 88.4845 286.644 88.9349C286.611 89.374 286.705 89.8372 286.927 90.3244L287.113 90.7323C287.34 91.2308 287.648 91.6237 288.039 91.9107C288.435 92.1813 288.878 92.3281 289.368 92.3512C289.863 92.3578 290.382 92.2371 290.926 91.989C291.413 91.7668 291.804 91.4994 292.1 91.1867C292.406 90.8689 292.646 90.4929 292.817 90.0588L294.923 90.9451C294.721 91.6122 294.362 92.2207 293.846 92.7707C293.325 93.3094 292.652 93.7673 291.825 94.1445Z" fill="black"/>
<path id="Vector_14" d="M276.825 89.6176C277.55 89.2869 278.257 89.1423 278.946 89.1836C279.641 89.2085 280.284 89.4489 280.874 89.9047C281.471 90.3441 281.981 91.0283 282.403 91.9574L284.785 97.1922L282.135 98.4014L279.939 93.5745C279.604 92.838 279.203 92.3639 278.738 92.1522C278.272 91.9405 277.762 91.9612 277.207 92.2144C276.822 92.3901 276.518 92.6384 276.294 92.9592C276.066 93.2687 275.947 93.6378 275.936 94.0666C275.926 94.4953 276.045 94.9816 276.293 95.5255L278.381 100.114L275.731 101.324L273.534 96.4968C273.199 95.7603 272.799 95.2861 272.333 95.0744C271.879 94.8575 271.374 94.8757 270.819 95.1289C270.434 95.3046 270.13 95.5528 269.907 95.8736C269.678 96.1831 269.559 96.5523 269.549 96.981C269.539 97.4098 269.658 97.8961 269.905 98.44L271.993 103.029L269.343 104.238L265.182 95.0942L267.713 93.9393L268.85 96.4377L268.042 95.9239C268.076 95.156 268.309 94.4817 268.742 93.9009C269.182 93.3036 269.775 92.8344 270.523 92.4934C271.361 92.111 272.189 91.9929 273.008 92.1393C273.833 92.2691 274.546 92.7238 275.147 93.5033L274.096 93.6746C274.077 92.8213 274.307 92.0325 274.784 91.3084C275.273 90.5791 275.953 90.0155 276.825 89.6176Z" fill="black"/>
<path id="Vector_15" d="M259.008 97.7474C259.732 97.4167 260.439 97.272 261.128 97.3134C261.823 97.3383 262.466 97.5787 263.057 98.0345C263.653 98.4738 264.163 99.1581 264.586 100.087L266.968 105.322L264.317 106.531L262.121 101.704C261.786 100.968 261.386 100.494 260.92 100.282C260.454 100.07 259.944 100.091 259.389 100.344C259.004 100.52 258.7 100.768 258.477 101.089C258.248 101.398 258.129 101.768 258.119 102.196C258.109 102.625 258.227 103.111 258.475 103.655L260.563 108.244L257.913 109.453L255.717 104.627C255.381 103.89 254.981 103.416 254.515 103.204C254.061 102.987 253.556 103.005 253.002 103.259C252.616 103.434 252.312 103.683 252.089 104.003C251.861 104.313 251.741 104.682 251.731 105.111C251.721 105.54 251.84 106.026 252.087 106.57L254.176 111.159L251.525 112.368L247.365 103.224L249.896 102.069L251.033 104.567L250.224 104.054C250.258 103.286 250.491 102.611 250.925 102.031C251.364 101.433 251.957 100.964 252.705 100.623C253.543 100.241 254.371 100.123 255.19 100.269C256.015 100.399 256.728 100.854 257.329 101.633L256.279 101.804C256.26 100.951 256.489 100.162 256.966 99.4382C257.455 98.7089 258.135 98.1453 259.008 97.7474Z" fill="black"/>
<path id="Vector_16" d="M244.804 115.599C243.83 116.043 242.871 116.234 241.927 116.173C240.994 116.106 240.146 115.822 239.385 115.321C238.63 114.804 238.046 114.092 237.633 113.185C237.216 112.267 237.062 111.359 237.173 110.46C237.29 109.545 237.632 108.718 238.199 107.981C238.772 107.227 239.546 106.627 240.52 106.183C241.482 105.744 242.436 105.555 243.38 105.617C244.32 105.667 245.164 105.945 245.914 106.451C246.664 106.957 247.251 107.675 247.674 108.604C248.086 109.511 248.239 110.419 248.134 111.329C248.023 112.228 247.681 113.055 247.108 113.809C246.535 114.563 245.767 115.159 244.804 115.599ZM243.814 113.423C244.256 113.222 244.606 112.939 244.864 112.575C245.123 112.211 245.269 111.795 245.302 111.328C245.331 110.85 245.227 110.35 244.989 109.829C244.747 109.296 244.439 108.89 244.065 108.609C243.691 108.328 243.282 108.165 242.838 108.122C242.394 108.078 241.951 108.157 241.51 108.358C241.068 108.56 240.718 108.843 240.46 109.207C240.201 109.571 240.05 109.989 240.005 110.461C239.971 110.928 240.075 111.428 240.318 111.96C240.555 112.482 240.863 112.888 241.242 113.181C241.627 113.456 242.042 113.616 242.486 113.66C242.93 113.704 243.373 113.625 243.814 113.423Z" fill="black"/>
<path id="Vector_17" d="M230.901 119.521L229.499 116.26L231.923 110.27L235.083 108.828L232.883 114.86L232.018 116.61L230.901 119.521ZM229.56 122.39L223.822 109.779L226.472 108.57L232.21 121.181L229.56 122.39ZM236.372 119.282L231.533 116.851L232.262 114.035L239.583 117.817L236.372 119.282Z" fill="black"/>
<path id="Vector_18" d="M219.147 115.935C219.872 115.604 220.584 115.457 221.285 115.493C221.991 115.513 222.645 115.748 223.247 116.199C223.843 116.638 224.353 117.322 224.776 118.251L227.158 123.486L224.508 124.695L222.311 119.868C221.976 119.132 221.565 118.663 221.076 118.462C220.599 118.255 220.066 118.286 219.477 118.555C219.058 118.746 218.72 119.01 218.463 119.346C218.212 119.666 218.073 120.051 218.045 120.501C218.029 120.947 218.15 121.453 218.407 122.019L220.465 126.54L217.814 127.749L213.654 118.605L216.185 117.45L217.337 119.983L216.513 119.435C216.564 118.673 216.82 117.989 217.282 117.381C217.744 116.773 218.365 116.291 219.147 115.935Z" fill="black"/>
<path id="Vector_19" d="M212.705 130.081L208.544 120.937L211.194 119.728L215.355 128.872L212.705 130.081ZM209.289 119.058C208.802 119.28 208.341 119.319 207.906 119.175C207.472 119.031 207.159 118.75 206.968 118.331C206.777 117.911 206.77 117.49 206.947 117.068C207.124 116.645 207.456 116.322 207.943 116.1C208.43 115.878 208.888 115.833 209.318 115.965C209.742 116.087 210.05 116.357 210.241 116.776C210.442 117.218 210.456 117.656 210.285 118.09C210.119 118.508 209.787 118.83 209.289 119.058Z" fill="black"/>
</g>
</g>
<g id="Klick1">
<g id="text90">
<path id="Vector_5" d="M37.4954 268.965C36.9974 268.965 36.5679 268.797 36.2069 268.461C35.8584 268.113 35.6841 267.671 35.6841 267.135C35.6841 266.6 35.8584 266.171 36.2069 265.847C36.5679 265.511 36.9974 265.343 37.4954 265.343C38.0058 265.343 38.4352 265.511 38.7838 265.847C39.1324 266.171 39.3066 266.6 39.3066 267.135C39.3066 267.671 39.1324 268.113 38.7838 268.461C38.4352 268.797 38.0058 268.965 37.4954 268.965Z" fill="black"/>
<path id="Vector_6" d="M29.0331 269.04C28.1493 269.04 27.3339 268.878 26.587 268.555C25.8525 268.218 25.2487 267.745 24.7757 267.135L26.4563 265.119C26.8173 265.592 27.197 265.953 27.5953 266.202C27.9937 266.438 28.4232 266.557 28.8838 266.557C30.1162 266.557 30.7324 265.835 30.7324 264.39V258.172H26.1388V255.745H33.7387V264.222C33.7387 265.841 33.3404 267.048 32.5437 267.845C31.7469 268.642 30.5768 269.04 29.0331 269.04Z" fill="black"/>
<path id="Vector_7" d="M13.6025 269.04C12.5071 269.04 11.5485 268.878 10.7269 268.555C9.90528 268.218 9.26417 267.752 8.80357 267.154C8.34297 266.544 8.11267 265.835 8.11267 265.025C8.11267 264.216 8.33675 263.532 8.7849 262.971C9.2455 262.399 9.88661 261.969 10.7082 261.683C11.5298 261.384 12.4946 261.235 13.6025 261.235C14.7229 261.235 15.6939 261.384 16.5155 261.683C17.3496 261.969 17.9907 262.399 18.4388 262.971C18.8994 263.532 19.1297 264.216 19.1297 265.025C19.1297 265.835 18.8994 266.544 18.4388 267.154C17.9782 267.752 17.3309 268.218 16.4968 268.555C15.6752 268.878 14.7105 269.04 13.6025 269.04ZM13.6025 266.818C14.3619 266.818 14.9594 266.65 15.3951 266.314C15.8433 265.978 16.0674 265.517 16.0674 264.932C16.0674 264.347 15.8433 263.893 15.3951 263.569C14.9594 263.233 14.3619 263.065 13.6025 263.065C12.8556 263.065 12.2643 263.233 11.8286 263.569C11.3929 263.893 11.175 264.347 11.175 264.932C11.175 265.517 11.3929 265.978 11.8286 266.314C12.2643 266.65 12.8556 266.818 13.6025 266.818ZM13.6025 262.766C12.5942 262.766 11.7103 262.629 10.951 262.355C10.204 262.081 9.61896 261.683 9.19571 261.16C8.7849 260.625 8.5795 259.99 8.5795 259.255C8.5795 258.484 8.79112 257.824 9.21438 257.276C9.63763 256.716 10.2289 256.286 10.9883 255.988C11.7477 255.676 12.6191 255.521 13.6025 255.521C14.6109 255.521 15.4885 255.676 16.2354 255.988C16.9948 256.286 17.5861 256.716 18.0094 257.276C18.4451 257.824 18.6629 258.484 18.6629 259.255C18.6629 259.99 18.4513 260.625 18.028 261.16C17.6172 261.683 17.0321 262.081 16.2728 262.355C15.5134 262.629 14.6233 262.766 13.6025 262.766ZM13.6025 260.992C14.2374 260.992 14.7354 260.849 15.0964 260.563C15.4698 260.276 15.6566 259.884 15.6566 259.386C15.6566 258.863 15.4636 258.459 15.0777 258.172C14.7042 257.886 14.2125 257.743 13.6025 257.743C13.005 257.743 12.5195 257.886 12.146 258.172C11.7726 258.459 11.5858 258.863 11.5858 259.386C11.5858 259.884 11.7664 260.276 12.1274 260.563C12.4884 260.849 12.9801 260.992 13.6025 260.992Z" fill="black"/>
<path id="Vector_8" d="M2.89169 268.816V256.865L4.1988 258.172H0.277466V255.745H5.91671V268.816H2.89169Z" fill="black"/>
</g>
<path id="Bild1" fill-rule="evenodd" clip-rule="evenodd" d="M526.282 241.988V0.279633L1.16925 241.988H526.282Z" fill="#60A49C"/>
</g>
<g id="Klick5">
<path id="Bild3" d="M526 0H816.268V103.825H526V0Z" fill="#E76945"/>
<g id="text84">
<path id="Vector_9" d="M687.33 64.7101L693.706 55.3736H695.293L688.917 64.7101H687.33ZM688.144 60.4153C687.69 60.4153 687.29 60.3131 686.943 60.1086C686.596 59.8951 686.321 59.5973 686.116 59.2149C685.921 58.8237 685.823 58.3657 685.823 57.8411C685.823 57.3165 685.921 56.863 686.116 56.4807C686.321 56.0983 686.596 55.8004 686.943 55.587C687.29 55.3736 687.69 55.2669 688.144 55.2669C688.597 55.2669 688.997 55.3736 689.344 55.587C689.691 55.8004 689.962 56.0983 690.158 56.4807C690.353 56.863 690.451 57.3165 690.451 57.8411C690.451 58.3657 690.353 58.8237 690.158 59.2149C689.962 59.5973 689.691 59.8951 689.344 60.1086C688.997 60.3131 688.597 60.4153 688.144 60.4153ZM688.144 59.3216C688.437 59.3216 688.673 59.2016 688.851 58.9615C689.028 58.7125 689.117 58.3391 689.117 57.8411C689.117 57.3432 689.028 56.9742 688.851 56.7341C688.673 56.4851 688.437 56.3606 688.144 56.3606C687.859 56.3606 687.623 56.4851 687.437 56.7341C687.259 56.9742 687.17 57.3432 687.17 57.8411C687.17 58.3302 687.259 58.6992 687.437 58.9482C687.623 59.1971 687.859 59.3216 688.144 59.3216ZM694.479 64.8168C694.035 64.8168 693.634 64.7146 693.279 64.51C692.932 64.2966 692.661 63.9988 692.465 63.6164C692.27 63.2252 692.172 62.7672 692.172 62.2426C692.172 61.718 692.27 61.2645 692.465 60.8821C692.661 60.4998 692.932 60.2019 693.279 59.9885C693.634 59.7751 694.035 59.6684 694.479 59.6684C694.942 59.6684 695.346 59.7751 695.693 59.9885C696.04 60.2019 696.311 60.4998 696.507 60.8821C696.702 61.2645 696.8 61.718 696.8 62.2426C696.8 62.7672 696.702 63.2252 696.507 63.6164C696.311 63.9988 696.04 64.2966 695.693 64.51C695.346 64.7146 694.942 64.8168 694.479 64.8168ZM694.479 63.7231C694.773 63.7231 695.008 63.6031 695.186 63.363C695.364 63.114 695.453 62.7406 695.453 62.2426C695.453 61.7536 695.364 61.3845 695.186 61.1356C695.008 60.8866 694.773 60.7621 694.479 60.7621C694.195 60.7621 693.959 60.8866 693.772 61.1356C693.594 61.3756 693.505 61.7447 693.505 62.2426C693.505 62.7406 693.594 63.114 693.772 63.363C693.959 63.6031 694.195 63.7231 694.479 63.7231Z" fill="white"/>
<path id="Vector_2_2" d="M680.932 64.8702C680.167 64.8702 679.482 64.6834 678.878 64.31C678.273 63.9276 677.797 63.3763 677.451 62.6561C677.104 61.9358 676.93 61.0644 676.93 60.0419C676.93 59.0193 677.104 58.1479 677.451 57.4276C677.797 56.7074 678.273 56.1606 678.878 55.7871C679.482 55.4047 680.167 55.2136 680.932 55.2136C681.705 55.2136 682.39 55.4047 682.986 55.7871C683.59 56.1606 684.066 56.7074 684.413 57.4276C684.76 58.1479 684.933 59.0193 684.933 60.0419C684.933 61.0644 684.76 61.9358 684.413 62.6561C684.066 63.3763 683.59 63.9276 682.986 64.31C682.39 64.6834 681.705 64.8702 680.932 64.8702ZM680.932 63.0429C681.296 63.0429 681.612 62.9406 681.879 62.7361C682.154 62.5316 682.368 62.207 682.519 61.7625C682.679 61.3179 682.759 60.7443 682.759 60.0419C682.759 59.3394 682.679 58.7659 682.519 58.3213C682.368 57.8767 682.154 57.5521 681.879 57.3476C681.612 57.1431 681.296 57.0408 680.932 57.0408C680.576 57.0408 680.26 57.1431 679.985 57.3476C679.718 57.5521 679.505 57.8767 679.345 58.3213C679.193 58.7659 679.118 59.3394 679.118 60.0419C679.118 60.7443 679.193 61.3179 679.345 61.7625C679.505 62.207 679.718 62.5316 679.985 62.7361C680.26 62.9406 680.576 63.0429 680.932 63.0429Z" fill="white"/>
<path id="Vector_3_2" d="M667.628 62.7494V61.2956L672.029 55.3736H674.297L669.989 61.2956L668.935 60.9888H676.284V62.7494H667.628ZM672.656 64.7101V62.7494L672.723 60.9888V59.2416H674.764V64.7101H672.656Z" fill="white"/>
<path id="Vector_4_2" d="M661.694 64.8169C661.338 64.8169 661.031 64.6968 660.773 64.4567C660.524 64.2078 660.4 63.8921 660.4 63.5097C660.4 63.1274 660.524 62.8206 660.773 62.5894C661.031 62.3493 661.338 62.2293 661.694 62.2293C662.058 62.2293 662.365 62.3493 662.614 62.5894C662.863 62.8206 662.987 63.1274 662.987 63.5097C662.987 63.8921 662.863 64.2078 662.614 64.4567C662.365 64.6968 662.058 64.8169 661.694 64.8169Z" fill="white"/>
<path id="Vector_5_2" d="M657.076 64.7101V63.3097L656.943 63.0029V60.4954C656.943 60.0508 656.805 59.704 656.529 59.455C656.263 59.2061 655.849 59.0816 655.289 59.0816C654.907 59.0816 654.529 59.1438 654.155 59.2683C653.791 59.3839 653.479 59.5439 653.222 59.7485L652.475 58.2946C652.866 58.019 653.337 57.8056 653.888 57.6544C654.44 57.5033 655 57.4277 655.569 57.4277C656.663 57.4277 657.512 57.6855 658.117 58.2013C658.721 58.717 659.024 59.5217 659.024 60.6154V64.7101H657.076ZM654.889 64.8168C654.329 64.8168 653.848 64.7235 653.448 64.5368C653.048 64.3411 652.741 64.0788 652.528 63.7498C652.315 63.4208 652.208 63.0518 652.208 62.6428C652.208 62.216 652.31 61.8425 652.515 61.5224C652.728 61.2023 653.062 60.9533 653.515 60.7755C653.968 60.5887 654.56 60.4954 655.289 60.4954H657.196V61.7091H655.516C655.027 61.7091 654.689 61.7892 654.502 61.9492C654.324 62.1093 654.235 62.3093 654.235 62.5494C654.235 62.8162 654.337 63.0296 654.542 63.1896C654.755 63.3408 655.044 63.4164 655.409 63.4164C655.756 63.4164 656.067 63.3363 656.343 63.1763C656.618 63.0073 656.818 62.7628 656.943 62.4427L657.263 63.403C657.112 63.8654 656.836 64.2166 656.436 64.4567C656.036 64.6968 655.52 64.8168 654.889 64.8168Z" fill="white"/>
<path id="Vector_6_2" d="M648.262 64.8168C647.489 64.8168 646.8 64.6612 646.195 64.35C645.59 64.0299 645.114 63.5898 644.768 63.0296C644.43 62.4694 644.261 61.8336 644.261 61.1223C644.261 60.402 644.43 59.7662 644.768 59.2149C645.114 58.6548 645.59 58.2191 646.195 57.9078C646.8 57.5877 647.489 57.4277 648.262 57.4277C649.018 57.4277 649.676 57.5877 650.236 57.9078C650.796 58.2191 651.21 58.6681 651.477 59.255L649.863 60.1219C649.676 59.784 649.44 59.5351 649.156 59.375C648.88 59.2149 648.578 59.1349 648.249 59.1349C647.893 59.1349 647.573 59.2149 647.289 59.375C647.004 59.5351 646.777 59.7618 646.608 60.0552C646.448 60.3487 646.368 60.7043 646.368 61.1223C646.368 61.5402 646.448 61.8959 646.608 62.1893C646.777 62.4827 647.004 62.7095 647.289 62.8695C647.573 63.0296 647.893 63.1096 648.249 63.1096C648.578 63.1096 648.88 63.034 649.156 62.8829C649.44 62.7228 649.676 62.4694 649.863 62.1226L651.477 63.0029C651.21 63.5809 650.796 64.0299 650.236 64.35C649.676 64.6612 649.018 64.8168 648.262 64.8168Z" fill="white"/>
</g>
<g id="text78">
<path id="Vector_7_2" d="M687.557 48.8168C686.739 48.8168 686.019 48.6568 685.396 48.3367C684.783 48.0166 684.307 47.5809 683.969 47.0296C683.631 46.4694 683.462 45.8336 683.462 45.1223C683.462 44.402 683.627 43.7662 683.956 43.2149C684.294 42.6548 684.752 42.2191 685.33 41.9078C685.908 41.5877 686.561 41.4277 687.29 41.4277C687.993 41.4277 688.624 41.5788 689.184 41.8812C689.753 42.1746 690.202 42.6014 690.531 43.1616C690.86 43.7129 691.025 44.3753 691.025 45.1489C691.025 45.229 691.021 45.3223 691.012 45.429C691.003 45.5268 690.994 45.6202 690.985 45.7091H685.156V44.4954H689.891L689.091 44.8555C689.091 44.482 689.015 44.1575 688.864 43.8818C688.713 43.6062 688.504 43.3928 688.237 43.2416C687.971 43.0816 687.659 43.0015 687.304 43.0015C686.948 43.0015 686.632 43.0816 686.357 43.2416C686.09 43.3928 685.881 43.6106 685.73 43.8952C685.579 44.1708 685.503 44.4998 685.503 44.8822V45.2023C685.503 45.5935 685.588 45.9403 685.757 46.2426C685.934 46.5361 686.179 46.7628 686.49 46.9229C686.81 47.074 687.184 47.1496 687.61 47.1496C687.993 47.1496 688.326 47.0918 688.611 46.9762C688.904 46.8606 689.171 46.6872 689.411 46.456L690.518 47.6565C690.189 48.0299 689.776 48.3189 689.278 48.5234C688.78 48.719 688.206 48.8168 687.557 48.8168Z" fill="white"/>
<path id="Vector_8_2" d="M677.211 47.2429L677.264 44.7088L680.612 41.5343H683.093L679.879 44.8021L678.798 45.6824L677.211 47.2429ZM675.49 48.7101V38.8134H677.571V48.7101H675.49ZM680.839 48.7101L678.411 45.6958L679.719 44.0819L683.36 48.7101H680.839Z" fill="white"/>
<path id="Vector_9_2" d="M671.117 48.8168C670.343 48.8168 669.654 48.6612 669.05 48.35C668.445 48.0299 667.969 47.5898 667.623 47.0296C667.285 46.4694 667.116 45.8336 667.116 45.1223C667.116 44.402 667.285 43.7662 667.623 43.2149C667.969 42.6548 668.445 42.2191 669.05 41.9078C669.654 41.5877 670.343 41.4277 671.117 41.4277C671.873 41.4277 672.531 41.5877 673.091 41.9078C673.651 42.2191 674.065 42.6681 674.332 43.255L672.718 44.1219C672.531 43.784 672.295 43.5351 672.011 43.375C671.735 43.2149 671.433 43.1349 671.104 43.1349C670.748 43.1349 670.428 43.2149 670.143 43.375C669.859 43.5351 669.632 43.7618 669.463 44.0552C669.303 44.3487 669.223 44.7043 669.223 45.1223C669.223 45.5402 669.303 45.8959 669.463 46.1893C669.632 46.4827 669.859 46.7095 670.143 46.8695C670.428 47.0296 670.748 47.1096 671.104 47.1096C671.433 47.1096 671.735 47.034 672.011 46.8829C672.295 46.7228 672.531 46.4694 672.718 46.1226L674.332 47.0029C674.065 47.5809 673.651 48.0299 673.091 48.35C672.531 48.6612 671.873 48.8168 671.117 48.8168Z" fill="white"/>
<path id="Vector_10" d="M661.52 48.8168C660.924 48.8168 660.391 48.7012 659.92 48.47C659.457 48.2389 659.097 47.8876 658.839 47.4164C658.581 46.9362 658.453 46.3271 658.453 45.5891V41.5344H660.533V45.2823C660.533 45.8781 660.658 46.3182 660.907 46.6027C661.165 46.8784 661.525 47.0162 661.987 47.0162C662.307 47.0162 662.592 46.9495 662.841 46.8161C663.09 46.6739 663.285 46.4605 663.428 46.1759C663.57 45.8825 663.641 45.5179 663.641 45.0822V41.5344H665.722V48.7101H663.748V46.7361L664.108 47.3096C663.868 47.8076 663.512 48.1855 663.041 48.4434C662.578 48.6923 662.072 48.8168 661.52 48.8168ZM663.428 40.5474C663.17 40.5474 662.952 40.4629 662.774 40.2939C662.596 40.125 662.507 39.9027 662.507 39.627C662.507 39.3514 662.596 39.1291 662.774 38.9601C662.952 38.7912 663.17 38.7067 663.428 38.7067C663.685 38.7067 663.903 38.7912 664.081 38.9601C664.268 39.1291 664.361 39.3514 664.361 39.627C664.361 39.9027 664.268 40.125 664.081 40.2939C663.903 40.4629 663.685 40.5474 663.428 40.5474ZM660.733 40.5474C660.475 40.5474 660.253 40.4629 660.066 40.2939C659.889 40.125 659.8 39.9027 659.8 39.627C659.8 39.3514 659.889 39.1291 660.066 38.9601C660.253 38.7912 660.475 38.7067 660.733 38.7067C660.991 38.7067 661.209 38.7912 661.387 38.9601C661.565 39.1291 661.654 39.3514 661.654 39.627C661.654 39.9027 661.565 40.125 661.387 40.2939C661.209 40.4629 660.991 40.5474 660.733 40.5474Z" fill="white"/>
<path id="Vector_11" d="M650.629 48.7101V39.3736H652.789V46.9495H657.471V48.7101H650.629Z" fill="white"/>
</g>
</g>
<g id="Klick4">
<path id="Bild2" d="M526.282 104.105H816.55V241.988H526.282V104.105Z" fill="#1E2949"/>
<g id="text48">
<path id="Vector_20" d="M585.931 168.839L581.903 159.503H584.237L587.758 167.772H586.384L589.959 159.503H592.106L588.065 168.839H585.931Z" fill="white"/>
<path id="Vector_21" d="M578.799 159.503H580.96V168.839H578.799V159.503ZM574.558 168.839H572.397V159.503H574.558V168.839ZM578.959 165.011H574.398V163.184H578.959V165.011Z" fill="white"/>
<path id="Vector_22" d="M560.958 168.839L565.119 159.503H567.253L571.428 168.839H569.161L565.746 160.596H566.6L563.172 168.839H560.958ZM563.039 166.838L563.612 165.198H568.414L569.001 166.838H563.039Z" fill="white"/>
</g>
<path id="text54" d="M593.433 165.918V164.251H597.207V165.918H593.433Z" fill="white"/>
<g id="text60">
<path id="Vector_23" d="M773.708 168.946C772.89 168.946 772.17 168.786 771.547 168.466C770.934 168.146 770.458 167.71 770.12 167.159C769.782 166.598 769.613 165.963 769.613 165.251C769.613 164.531 769.778 163.895 770.107 163.344C770.445 162.784 770.902 162.348 771.48 162.037C772.058 161.717 772.712 161.557 773.441 161.557C774.144 161.557 774.775 161.708 775.335 162.01C775.904 162.304 776.353 162.73 776.682 163.291C777.011 163.842 777.176 164.504 777.176 165.278C777.176 165.358 777.171 165.451 777.162 165.558C777.154 165.656 777.145 165.749 777.136 165.838H771.307V164.624H776.042L775.242 164.984C775.242 164.611 775.166 164.286 775.015 164.011C774.864 163.735 774.655 163.522 774.388 163.371C774.121 163.211 773.81 163.13 773.454 163.13C773.099 163.13 772.783 163.211 772.507 163.371C772.241 163.522 772.032 163.74 771.881 164.024C771.729 164.3 771.654 164.629 771.654 165.011V165.331C771.654 165.722 771.738 166.069 771.907 166.372C772.085 166.665 772.33 166.892 772.641 167.052C772.961 167.203 773.334 167.279 773.761 167.279C774.144 167.279 774.477 167.221 774.762 167.105C775.055 166.99 775.322 166.816 775.562 166.585L776.669 167.785C776.34 168.159 775.926 168.448 775.428 168.652C774.931 168.848 774.357 168.946 773.708 168.946Z" fill="white"/>
<path id="Vector_24" d="M765.475 168.946C764.862 168.946 764.27 168.875 763.701 168.732C763.141 168.581 762.696 168.395 762.367 168.172L763.061 166.678C763.39 166.883 763.777 167.052 764.221 167.185C764.675 167.31 765.119 167.372 765.555 167.372C766.035 167.372 766.373 167.314 766.569 167.199C766.773 167.083 766.876 166.923 766.876 166.718C766.876 166.549 766.796 166.425 766.635 166.345C766.484 166.256 766.28 166.189 766.022 166.145C765.764 166.1 765.48 166.056 765.168 166.011C764.866 165.967 764.559 165.909 764.248 165.838C763.937 165.758 763.652 165.642 763.394 165.491C763.136 165.34 762.928 165.136 762.767 164.878C762.616 164.62 762.541 164.286 762.541 163.877C762.541 163.424 762.67 163.024 762.928 162.677C763.194 162.33 763.577 162.059 764.075 161.863C764.573 161.659 765.168 161.557 765.862 161.557C766.351 161.557 766.849 161.61 767.356 161.717C767.863 161.823 768.285 161.979 768.623 162.183L767.929 163.664C767.582 163.459 767.231 163.322 766.876 163.251C766.529 163.17 766.191 163.13 765.862 163.13C765.399 163.13 765.062 163.193 764.848 163.317C764.635 163.442 764.528 163.602 764.528 163.797C764.528 163.975 764.604 164.109 764.755 164.198C764.915 164.286 765.124 164.358 765.382 164.411C765.64 164.464 765.92 164.513 766.222 164.558C766.533 164.593 766.844 164.651 767.156 164.731C767.467 164.811 767.747 164.927 767.996 165.078C768.254 165.22 768.463 165.42 768.623 165.678C768.783 165.927 768.863 166.256 768.863 166.665C768.863 167.11 768.73 167.505 768.463 167.852C768.196 168.19 767.809 168.457 767.302 168.652C766.804 168.848 766.195 168.946 765.475 168.946Z" fill="white"/>
<path id="Vector_25" d="M758.389 168.946C757.776 168.946 757.184 168.875 756.615 168.732C756.055 168.581 755.611 168.395 755.282 168.172L755.975 166.678C756.304 166.883 756.691 167.052 757.136 167.185C757.589 167.31 758.034 167.372 758.469 167.372C758.949 167.372 759.287 167.314 759.483 167.199C759.688 167.083 759.79 166.923 759.79 166.718C759.79 166.549 759.71 166.425 759.55 166.345C759.399 166.256 759.194 166.189 758.936 166.145C758.678 166.1 758.394 166.056 758.083 166.011C757.78 165.967 757.473 165.909 757.162 165.838C756.851 165.758 756.566 165.642 756.309 165.491C756.051 165.34 755.842 165.136 755.682 164.878C755.531 164.62 755.455 164.286 755.455 163.877C755.455 163.424 755.584 163.024 755.842 162.677C756.109 162.33 756.491 162.059 756.989 161.863C757.487 161.659 758.083 161.557 758.776 161.557C759.265 161.557 759.763 161.61 760.27 161.717C760.777 161.823 761.199 161.979 761.537 162.183L760.843 163.664C760.497 163.459 760.145 163.322 759.79 163.251C759.443 163.17 759.105 163.13 758.776 163.13C758.314 163.13 757.976 163.193 757.762 163.317C757.549 163.442 757.442 163.602 757.442 163.797C757.442 163.975 757.518 164.109 757.669 164.198C757.829 164.286 758.038 164.358 758.296 164.411C758.554 164.464 758.834 164.513 759.136 164.558C759.447 164.593 759.759 164.651 760.07 164.731C760.381 164.811 760.661 164.927 760.91 165.078C761.168 165.22 761.377 165.42 761.537 165.678C761.697 165.927 761.777 166.256 761.777 166.665C761.777 167.11 761.644 167.505 761.377 167.852C761.11 168.19 760.723 168.457 760.217 168.652C759.719 168.848 759.11 168.946 758.389 168.946Z" fill="white"/>
<path id="Vector_26" d="M752.145 168.839V167.439L752.011 167.132V164.624C752.011 164.18 751.873 163.833 751.598 163.584C751.331 163.335 750.918 163.211 750.357 163.211C749.975 163.211 749.597 163.273 749.224 163.397C748.859 163.513 748.548 163.673 748.29 163.877L747.543 162.424C747.934 162.148 748.406 161.935 748.957 161.783C749.508 161.632 750.068 161.557 750.637 161.557C751.731 161.557 752.58 161.814 753.185 162.33C753.79 162.846 754.092 163.651 754.092 164.744V168.839H752.145ZM749.957 168.946C749.397 168.946 748.917 168.852 748.517 168.666C748.117 168.47 747.81 168.208 747.596 167.879C747.383 167.55 747.276 167.181 747.276 166.772C747.276 166.345 747.379 165.971 747.583 165.651C747.797 165.331 748.13 165.082 748.583 164.904C749.037 164.718 749.628 164.624 750.357 164.624H752.265V165.838H750.584C750.095 165.838 749.757 165.918 749.57 166.078C749.393 166.238 749.304 166.438 749.304 166.678C749.304 166.945 749.406 167.159 749.61 167.319C749.824 167.47 750.113 167.545 750.477 167.545C750.824 167.545 751.135 167.465 751.411 167.305C751.687 167.136 751.887 166.892 752.011 166.572L752.331 167.532C752.18 167.994 751.905 168.346 751.504 168.586C751.104 168.826 750.589 168.946 749.957 168.946Z" fill="white"/>
<path id="Vector_27" d="M740.789 167.372L740.842 164.838L744.19 161.663H746.671L743.456 164.931L742.376 165.811L740.789 167.372ZM739.068 168.839V158.942H741.149V168.839H739.068ZM744.417 168.839L741.989 165.825L743.296 164.211L746.938 168.839H744.417Z" fill="white"/>
<path id="Vector_28" d="M734.397 168.946C733.783 168.946 733.192 168.875 732.623 168.732C732.063 168.581 731.618 168.395 731.289 168.172L731.983 166.678C732.312 166.883 732.698 167.052 733.143 167.185C733.596 167.31 734.041 167.372 734.477 167.372C734.957 167.372 735.295 167.314 735.49 167.199C735.695 167.083 735.797 166.923 735.797 166.718C735.797 166.549 735.717 166.425 735.557 166.345C735.406 166.256 735.201 166.189 734.944 166.145C734.686 166.1 734.401 166.056 734.09 166.011C733.788 165.967 733.481 165.909 733.17 165.838C732.858 165.758 732.574 165.642 732.316 165.491C732.058 165.34 731.849 165.136 731.689 164.878C731.538 164.62 731.462 164.286 731.462 163.877C731.462 163.424 731.591 163.024 731.849 162.677C732.116 162.33 732.498 162.059 732.996 161.863C733.494 161.659 734.09 161.557 734.784 161.557C735.273 161.557 735.771 161.61 736.277 161.717C736.784 161.823 737.207 161.979 737.544 162.183L736.851 163.664C736.504 163.459 736.153 163.322 735.797 163.251C735.45 163.17 735.113 163.13 734.784 163.13C734.321 163.13 733.983 163.193 733.77 163.317C733.556 163.442 733.45 163.602 733.45 163.797C733.45 163.975 733.525 164.109 733.676 164.198C733.837 164.286 734.045 164.358 734.303 164.411C734.561 164.464 734.841 164.513 735.144 164.558C735.455 164.593 735.766 164.651 736.077 164.731C736.389 164.811 736.669 164.927 736.918 165.078C737.175 165.22 737.384 165.42 737.544 165.678C737.705 165.927 737.785 166.256 737.785 166.665C737.785 167.11 737.651 167.505 737.384 167.852C737.118 168.19 736.731 168.457 736.224 168.652C735.726 168.848 735.117 168.946 734.397 168.946Z" fill="white"/>
<path id="Vector_29" d="M727.122 161.557C727.691 161.557 728.198 161.672 728.643 161.903C729.096 162.126 729.452 162.472 729.71 162.944C729.968 163.406 730.096 164.002 730.096 164.731V168.839H728.016V165.051C728.016 164.473 727.887 164.046 727.629 163.771C727.38 163.495 727.024 163.357 726.562 163.357C726.233 163.357 725.935 163.428 725.668 163.571C725.41 163.704 725.206 163.913 725.055 164.198C724.912 164.482 724.841 164.847 724.841 165.291V168.839H722.761V161.663H724.748V163.651L724.375 163.05C724.632 162.57 725.001 162.201 725.482 161.943C725.962 161.686 726.509 161.557 727.122 161.557Z" fill="white"/>
<path id="Vector_30" d="M717.435 168.946C716.67 168.946 715.99 168.786 715.394 168.466C714.808 168.146 714.341 167.71 713.994 167.159C713.656 166.598 713.487 165.963 713.487 165.251C713.487 164.531 713.656 163.895 713.994 163.344C714.341 162.784 714.808 162.348 715.394 162.037C715.99 161.717 716.67 161.557 717.435 161.557C718.191 161.557 718.867 161.717 719.463 162.037C720.058 162.348 720.525 162.779 720.863 163.331C721.201 163.882 721.37 164.522 721.37 165.251C721.37 165.963 721.201 166.598 720.863 167.159C720.525 167.71 720.058 168.146 719.463 168.466C718.867 168.786 718.191 168.946 717.435 168.946ZM717.435 167.239C717.782 167.239 718.093 167.159 718.369 166.998C718.644 166.838 718.862 166.612 719.022 166.318C719.182 166.016 719.262 165.66 719.262 165.251C719.262 164.833 719.182 164.478 719.022 164.184C718.862 163.891 718.644 163.664 718.369 163.504C718.093 163.344 717.782 163.264 717.435 163.264C717.088 163.264 716.777 163.344 716.502 163.504C716.226 163.664 716.004 163.891 715.835 164.184C715.675 164.478 715.595 164.833 715.595 165.251C715.595 165.66 715.675 166.016 715.835 166.318C716.004 166.612 716.226 166.838 716.502 166.998C716.777 167.159 717.088 167.239 717.435 167.239Z" fill="white"/>
<path id="Vector_31" d="M710.009 168.839V161.663H712.09V168.839H710.009ZM711.049 160.663C710.667 160.663 710.356 160.552 710.116 160.33C709.876 160.107 709.755 159.832 709.755 159.503C709.755 159.174 709.876 158.898 710.116 158.676C710.356 158.453 710.667 158.342 711.049 158.342C711.432 158.342 711.743 158.449 711.983 158.662C712.223 158.867 712.343 159.134 712.343 159.463C712.343 159.809 712.223 160.098 711.983 160.33C711.752 160.552 711.44 160.663 711.049 160.663Z" fill="white"/>
<path id="Vector_32" d="M705.337 168.946C704.724 168.946 704.132 168.875 703.563 168.732C703.003 168.581 702.559 168.395 702.23 168.172L702.923 166.678C703.252 166.883 703.639 167.052 704.084 167.185C704.537 167.31 704.982 167.372 705.417 167.372C705.897 167.372 706.235 167.314 706.431 167.199C706.635 167.083 706.738 166.923 706.738 166.718C706.738 166.549 706.658 166.425 706.498 166.345C706.347 166.256 706.142 166.189 705.884 166.145C705.626 166.1 705.342 166.056 705.031 166.011C704.728 165.967 704.421 165.909 704.11 165.838C703.799 165.758 703.514 165.642 703.257 165.491C702.999 165.34 702.79 165.136 702.63 164.878C702.479 164.62 702.403 164.286 702.403 163.877C702.403 163.424 702.532 163.024 702.79 162.677C703.056 162.33 703.439 162.059 703.937 161.863C704.435 161.659 705.031 161.557 705.724 161.557C706.213 161.557 706.711 161.61 707.218 161.717C707.725 161.823 708.147 161.979 708.485 162.183L707.791 163.664C707.445 163.459 707.093 163.322 706.738 163.251C706.391 163.17 706.053 163.13 705.724 163.13C705.262 163.13 704.924 163.193 704.71 163.317C704.497 163.442 704.39 163.602 704.39 163.797C704.39 163.975 704.466 164.109 704.617 164.198C704.777 164.286 704.986 164.358 705.244 164.411C705.502 164.464 705.782 164.513 706.084 164.558C706.395 164.593 706.707 164.651 707.018 164.731C707.329 164.811 707.609 164.927 707.858 165.078C708.116 165.22 708.325 165.42 708.485 165.678C708.645 165.927 708.725 166.256 708.725 166.665C708.725 167.11 708.592 167.505 708.325 167.852C708.058 168.19 707.671 168.457 707.165 168.652C706.667 168.848 706.058 168.946 705.337 168.946Z" fill="white"/>
<path id="Vector_33" d="M698.063 161.557C698.632 161.557 699.139 161.672 699.583 161.903C700.037 162.126 700.392 162.472 700.65 162.944C700.908 163.406 701.037 164.002 701.037 164.731V168.839H698.956V165.051C698.956 164.473 698.827 164.046 698.57 163.771C698.321 163.495 697.965 163.357 697.503 163.357C697.174 163.357 696.876 163.428 696.609 163.571C696.351 163.704 696.146 163.913 695.995 164.198C695.853 164.482 695.782 164.847 695.782 165.291V168.839H693.701V161.663H695.689V163.651L695.315 163.05C695.573 162.57 695.942 162.201 696.422 161.943C696.902 161.686 697.449 161.557 698.063 161.557Z" fill="white"/>
<path id="Vector_34" d="M688.848 168.946C688.03 168.946 687.31 168.786 686.687 168.466C686.074 168.146 685.598 167.71 685.26 167.159C684.922 166.598 684.753 165.963 684.753 165.251C684.753 164.531 684.918 163.895 685.247 163.344C685.585 162.784 686.043 162.348 686.621 162.037C687.199 161.717 687.852 161.557 688.581 161.557C689.284 161.557 689.915 161.708 690.475 162.01C691.044 162.304 691.493 162.73 691.822 163.291C692.151 163.842 692.316 164.504 692.316 165.278C692.316 165.358 692.312 165.451 692.303 165.558C692.294 165.656 692.285 165.749 692.276 165.838H686.447V164.624H691.182L690.382 164.984C690.382 164.611 690.306 164.286 690.155 164.011C690.004 163.735 689.795 163.522 689.528 163.371C689.262 163.211 688.95 163.13 688.595 163.13C688.239 163.13 687.923 163.211 687.648 163.371C687.381 163.522 687.172 163.74 687.021 164.024C686.87 164.3 686.794 164.629 686.794 165.011V165.331C686.794 165.722 686.879 166.069 687.047 166.372C687.225 166.665 687.47 166.892 687.781 167.052C688.101 167.203 688.475 167.279 688.901 167.279C689.284 167.279 689.617 167.221 689.902 167.105C690.195 166.99 690.462 166.816 690.702 166.585L691.809 167.785C691.48 168.159 691.067 168.448 690.569 168.652C690.071 168.848 689.497 168.946 688.848 168.946Z" fill="white"/>
<path id="Vector_35" d="M675.808 168.839V159.503H679.849C680.685 159.503 681.405 159.64 682.01 159.916C682.615 160.183 683.081 160.57 683.41 161.076C683.739 161.583 683.904 162.188 683.904 162.89C683.904 163.584 683.739 164.184 683.41 164.691C683.081 165.198 682.615 165.589 682.01 165.865C681.405 166.132 680.685 166.265 679.849 166.265H677.008L677.969 165.291V168.839H675.808ZM677.969 165.531L677.008 164.504H679.729C680.396 164.504 680.894 164.362 681.223 164.077C681.552 163.793 681.717 163.397 681.717 162.89C681.717 162.375 681.552 161.975 681.223 161.69C680.894 161.405 680.396 161.263 679.729 161.263H677.008L677.969 160.236V165.531Z" fill="white"/>
<path id="Vector_36" d="M665.73 168.946C665.054 168.946 664.445 168.795 663.903 168.492C663.36 168.181 662.929 167.75 662.609 167.199C662.298 166.647 662.142 165.998 662.142 165.251C662.142 164.495 662.298 163.842 662.609 163.291C662.929 162.739 663.36 162.312 663.903 162.01C664.445 161.708 665.054 161.557 665.73 161.557C666.335 161.557 666.864 161.69 667.317 161.957C667.771 162.224 668.122 162.628 668.371 163.17C668.62 163.713 668.744 164.406 668.744 165.251C668.744 166.087 668.624 166.781 668.384 167.332C668.144 167.874 667.797 168.279 667.344 168.546C666.899 168.812 666.361 168.946 665.73 168.946ZM666.09 167.239C666.428 167.239 666.735 167.159 667.01 166.998C667.286 166.838 667.504 166.612 667.664 166.318C667.833 166.016 667.917 165.66 667.917 165.251C667.917 164.833 667.833 164.478 667.664 164.184C667.504 163.891 667.286 163.664 667.01 163.504C666.735 163.344 666.428 163.264 666.09 163.264C665.743 163.264 665.432 163.344 665.156 163.504C664.881 163.664 664.658 163.891 664.49 164.184C664.329 164.478 664.249 164.833 664.249 165.251C664.249 165.66 664.329 166.016 664.49 166.318C664.658 166.612 664.881 166.838 665.156 166.998C665.432 167.159 665.743 167.239 666.09 167.239ZM667.971 168.839V167.372L668.011 165.238L667.877 163.117V158.942H669.958V168.839H667.971Z" fill="white"/>
<path id="Vector_37" d="M657.736 161.557C658.305 161.557 658.812 161.672 659.257 161.903C659.71 162.126 660.066 162.472 660.324 162.944C660.582 163.406 660.711 164.002 660.711 164.731V168.839H658.63V165.051C658.63 164.473 658.501 164.046 658.243 163.771C657.994 163.495 657.639 163.357 657.176 163.357C656.847 163.357 656.549 163.428 656.283 163.571C656.025 163.704 655.82 163.913 655.669 164.198C655.527 164.482 655.456 164.847 655.456 165.291V168.839H653.375V161.663H655.362V163.651L654.989 163.05C655.247 162.57 655.616 162.201 656.096 161.943C656.576 161.686 657.123 161.557 657.736 161.557Z" fill="white"/>
<path id="Vector_38" d="M647.246 168.946C646.65 168.946 646.117 168.83 645.645 168.599C645.183 168.368 644.823 168.017 644.565 167.545C644.307 167.065 644.178 166.456 644.178 165.718V161.663H646.259V165.411C646.259 166.007 646.383 166.447 646.632 166.732C646.89 167.007 647.25 167.145 647.713 167.145C648.033 167.145 648.317 167.079 648.566 166.945C648.815 166.803 649.011 166.589 649.153 166.305C649.295 166.011 649.367 165.647 649.367 165.211V161.663H651.447V168.839H649.473V166.865L649.833 167.439C649.593 167.937 649.238 168.314 648.766 168.572C648.304 168.821 647.797 168.946 647.246 168.946Z" fill="white"/>
<path id="Vector_39" d="M635.588 168.946C634.77 168.946 634.049 168.786 633.427 168.466C632.813 168.146 632.338 167.71 632 167.159C631.662 166.598 631.493 165.963 631.493 165.251C631.493 164.531 631.657 163.895 631.986 163.344C632.324 162.784 632.782 162.348 633.36 162.037C633.938 161.717 634.592 161.557 635.321 161.557C636.023 161.557 636.655 161.708 637.215 162.01C637.784 162.304 638.233 162.73 638.562 163.291C638.891 163.842 639.056 164.504 639.056 165.278C639.056 165.358 639.051 165.451 639.042 165.558C639.033 165.656 639.024 165.749 639.016 165.838H633.187V164.624H637.922L637.122 164.984C637.122 164.611 637.046 164.286 636.895 164.011C636.744 163.735 636.535 163.522 636.268 163.371C636.001 163.211 635.69 163.13 635.334 163.13C634.979 163.13 634.663 163.211 634.387 163.371C634.12 163.522 633.912 163.74 633.76 164.024C633.609 164.3 633.534 164.629 633.534 165.011V165.331C633.534 165.722 633.618 166.069 633.787 166.372C633.965 166.665 634.209 166.892 634.521 167.052C634.841 167.203 635.214 167.279 635.641 167.279C636.023 167.279 636.357 167.221 636.641 167.105C636.935 166.99 637.202 166.816 637.442 166.585L638.549 167.785C638.22 168.159 637.806 168.448 637.308 168.652C636.81 168.848 636.237 168.946 635.588 168.946Z" fill="white"/>
<path id="Vector_40" d="M629.386 168.946C628.541 168.946 627.883 168.732 627.412 168.306C626.941 167.87 626.705 167.225 626.705 166.372V160.076H628.786V166.345C628.786 166.647 628.866 166.883 629.026 167.052C629.186 167.212 629.404 167.292 629.679 167.292C630.008 167.292 630.288 167.203 630.52 167.025L631.08 168.492C630.866 168.643 630.609 168.759 630.306 168.839C630.013 168.91 629.706 168.946 629.386 168.946ZM625.598 163.424V161.823H630.573V163.424H625.598Z" fill="white"/>
<path id="Vector_41" d="M621.591 161.557C622.16 161.557 622.667 161.672 623.112 161.903C623.565 162.126 623.921 162.472 624.179 162.944C624.437 163.406 624.566 164.002 624.566 164.731V168.839H622.485V165.051C622.485 164.473 622.356 164.046 622.098 163.771C621.849 163.495 621.493 163.357 621.031 163.357C620.702 163.357 620.404 163.428 620.137 163.571C619.88 163.704 619.675 163.913 619.524 164.198C619.382 164.482 619.31 164.847 619.31 165.291V168.839H617.23V161.663H619.217V163.651L618.844 163.05C619.101 162.57 619.47 162.201 619.951 161.943C620.431 161.686 620.978 161.557 621.591 161.557Z" fill="white"/>
<path id="Vector_42" d="M612.377 168.946C611.559 168.946 610.838 168.786 610.216 168.466C609.602 168.146 609.127 167.71 608.789 167.159C608.451 166.598 608.282 165.963 608.282 165.251C608.282 164.531 608.446 163.895 608.775 163.344C609.113 162.784 609.571 162.348 610.149 162.037C610.727 161.717 611.381 161.557 612.11 161.557C612.812 161.557 613.444 161.708 614.004 162.01C614.573 162.304 615.022 162.73 615.351 163.291C615.68 163.842 615.844 164.504 615.844 165.278C615.844 165.358 615.84 165.451 615.831 165.558C615.822 165.656 615.813 165.749 615.804 165.838H609.976V164.624H614.711L613.91 164.984C613.91 164.611 613.835 164.286 613.684 164.011C613.533 163.735 613.324 163.522 613.057 163.371C612.79 163.211 612.479 163.13 612.123 163.13C611.767 163.13 611.452 163.211 611.176 163.371C610.909 163.522 610.7 163.74 610.549 164.024C610.398 164.3 610.323 164.629 610.323 165.011V165.331C610.323 165.722 610.407 166.069 610.576 166.372C610.754 166.665 610.998 166.892 611.31 167.052C611.63 167.203 612.003 167.279 612.43 167.279C612.812 167.279 613.146 167.221 613.43 167.105C613.724 166.99 613.99 166.816 614.231 166.585L615.338 167.785C615.009 168.159 614.595 168.448 614.097 168.652C613.599 168.848 613.026 168.946 612.377 168.946Z" fill="white"/>
<path id="Vector_43" d="M599.154 168.839V159.503H603.195C604.031 159.503 604.752 159.64 605.356 159.916C605.961 160.183 606.428 160.57 606.757 161.076C607.086 161.583 607.25 162.188 607.25 162.89C607.25 163.584 607.086 164.184 606.757 164.691C606.428 165.189 605.961 165.571 605.356 165.838C604.752 166.105 604.031 166.238 603.195 166.238H600.354L601.315 165.291V168.839H599.154ZM605.089 168.839L602.755 165.451H605.063L607.424 168.839H605.089ZM601.315 165.531L600.354 164.518H603.075C603.742 164.518 604.24 164.375 604.569 164.091C604.898 163.797 605.063 163.397 605.063 162.89C605.063 162.375 604.898 161.975 604.569 161.69C604.24 161.405 603.742 161.263 603.075 161.263H600.354L601.315 160.236V165.531Z" fill="white"/>
</g>
<g id="text66">
<path id="Vector_44" d="M687.288 184.839L693.663 175.503H695.251L688.875 184.839H687.288ZM688.101 180.544C687.648 180.544 687.248 180.442 686.901 180.238C686.554 180.024 686.279 179.726 686.074 179.344C685.878 178.953 685.781 178.495 685.781 177.97C685.781 177.445 685.878 176.992 686.074 176.61C686.279 176.227 686.554 175.929 686.901 175.716C687.248 175.503 687.648 175.396 688.101 175.396C688.555 175.396 688.955 175.503 689.302 175.716C689.649 175.929 689.92 176.227 690.115 176.61C690.311 176.992 690.409 177.445 690.409 177.97C690.409 178.495 690.311 178.953 690.115 179.344C689.92 179.726 689.649 180.024 689.302 180.238C688.955 180.442 688.555 180.544 688.101 180.544ZM688.101 179.451C688.395 179.451 688.63 179.331 688.808 179.09C688.986 178.841 689.075 178.468 689.075 177.97C689.075 177.472 688.986 177.103 688.808 176.863C688.63 176.614 688.395 176.49 688.101 176.49C687.817 176.49 687.581 176.614 687.394 176.863C687.217 177.103 687.128 177.472 687.128 177.97C687.128 178.459 687.217 178.828 687.394 179.077C687.581 179.326 687.817 179.451 688.101 179.451ZM694.437 184.946C693.992 184.946 693.592 184.844 693.236 184.639C692.89 184.426 692.618 184.128 692.423 183.745C692.227 183.354 692.129 182.896 692.129 182.372C692.129 181.847 692.227 181.393 692.423 181.011C692.618 180.629 692.89 180.331 693.236 180.117C693.592 179.904 693.992 179.797 694.437 179.797C694.899 179.797 695.304 179.904 695.651 180.117C695.997 180.331 696.269 180.629 696.464 181.011C696.66 181.393 696.758 181.847 696.758 182.372C696.758 182.896 696.66 183.354 696.464 183.745C696.269 184.128 695.997 184.426 695.651 184.639C695.304 184.844 694.899 184.946 694.437 184.946ZM694.437 183.852C694.73 183.852 694.966 183.732 695.144 183.492C695.322 183.243 695.411 182.87 695.411 182.372C695.411 181.883 695.322 181.514 695.144 181.265C694.966 181.016 694.73 180.891 694.437 180.891C694.152 180.891 693.917 181.016 693.73 181.265C693.552 181.505 693.463 181.874 693.463 182.372C693.463 182.87 693.552 183.243 693.73 183.492C693.917 183.732 694.152 183.852 694.437 183.852Z" fill="white"/>
<path id="Vector_45" d="M680.889 184.999C680.125 184.999 679.44 184.812 678.835 184.439C678.231 184.057 677.755 183.505 677.408 182.785C677.061 182.065 676.888 181.193 676.888 180.171C676.888 179.148 677.061 178.277 677.408 177.557C677.755 176.836 678.231 176.29 678.835 175.916C679.44 175.534 680.125 175.343 680.889 175.343C681.663 175.343 682.348 175.534 682.943 175.916C683.548 176.29 684.024 176.836 684.371 177.557C684.717 178.277 684.891 179.148 684.891 180.171C684.891 181.193 684.717 182.065 684.371 182.785C684.024 183.505 683.548 184.057 682.943 184.439C682.348 184.812 681.663 184.999 680.889 184.999ZM680.889 183.172C681.254 183.172 681.57 183.07 681.836 182.865C682.112 182.661 682.325 182.336 682.477 181.891C682.637 181.447 682.717 180.873 682.717 180.171C682.717 179.468 682.637 178.895 682.477 178.45C682.325 178.006 682.112 177.681 681.836 177.477C681.57 177.272 681.254 177.17 680.889 177.17C680.534 177.17 680.218 177.272 679.942 177.477C679.676 177.681 679.462 178.006 679.302 178.45C679.151 178.895 679.075 179.468 679.075 180.171C679.075 180.873 679.151 181.447 679.302 181.891C679.462 182.336 679.676 182.661 679.942 182.865C680.218 183.07 680.534 183.172 680.889 183.172Z" fill="white"/>
<path id="Vector_46" d="M672.57 184.999C671.717 184.999 670.974 184.821 670.343 184.466C669.72 184.11 669.24 183.59 668.902 182.905C668.565 182.22 668.396 181.376 668.396 180.371C668.396 179.295 668.596 178.384 668.996 177.637C669.405 176.89 669.965 176.321 670.676 175.929C671.397 175.538 672.224 175.343 673.157 175.343C673.655 175.343 674.131 175.396 674.584 175.503C675.038 175.609 675.429 175.769 675.758 175.983L674.958 177.57C674.7 177.392 674.424 177.272 674.131 177.21C673.837 177.139 673.531 177.103 673.211 177.103C672.401 177.103 671.761 177.348 671.29 177.837C670.819 178.326 670.583 179.05 670.583 180.011C670.583 180.171 670.583 180.349 670.583 180.544C670.592 180.74 670.619 180.936 670.663 181.131L670.063 180.571C670.232 180.224 670.45 179.935 670.716 179.704C670.983 179.464 671.299 179.286 671.663 179.17C672.037 179.046 672.446 178.984 672.89 178.984C673.495 178.984 674.038 179.104 674.518 179.344C674.998 179.584 675.38 179.922 675.665 180.358C675.958 180.793 676.105 181.305 676.105 181.891C676.105 182.523 675.945 183.074 675.625 183.545C675.313 184.008 674.891 184.368 674.358 184.626C673.833 184.875 673.237 184.999 672.57 184.999ZM672.45 183.385C672.753 183.385 673.019 183.332 673.251 183.225C673.491 183.11 673.677 182.945 673.811 182.732C673.944 182.518 674.011 182.274 674.011 181.998C674.011 181.571 673.864 181.233 673.571 180.984C673.286 180.727 672.904 180.598 672.424 180.598C672.104 180.598 671.823 180.66 671.583 180.784C671.343 180.9 671.152 181.064 671.01 181.278C670.876 181.482 670.81 181.722 670.81 181.998C670.81 182.265 670.876 182.505 671.01 182.718C671.143 182.923 671.33 183.087 671.57 183.212C671.81 183.327 672.104 183.385 672.45 183.385Z" fill="white"/>
<path id="Vector_47" d="M662.355 184.946C661.999 184.946 661.692 184.826 661.434 184.586C661.185 184.337 661.061 184.021 661.061 183.639C661.061 183.256 661.185 182.95 661.434 182.718C661.692 182.478 661.999 182.358 662.355 182.358C662.719 182.358 663.026 182.478 663.275 182.718C663.524 182.95 663.648 183.256 663.648 183.639C663.648 184.021 663.524 184.337 663.275 184.586C663.026 184.826 662.719 184.946 662.355 184.946Z" fill="white"/>
<path id="Vector_48" d="M657.737 184.839V183.439L657.604 183.132V180.624C657.604 180.18 657.466 179.833 657.19 179.584C656.924 179.335 656.51 179.211 655.95 179.211C655.567 179.211 655.19 179.273 654.816 179.397C654.452 179.513 654.14 179.673 653.882 179.877L653.136 178.424C653.527 178.148 653.998 177.935 654.549 177.783C655.101 177.632 655.661 177.557 656.23 177.557C657.324 177.557 658.173 177.814 658.777 178.33C659.382 178.846 659.684 179.651 659.684 180.744V184.839H657.737ZM655.55 184.946C654.99 184.946 654.509 184.852 654.109 184.666C653.709 184.47 653.402 184.208 653.189 183.879C652.976 183.55 652.869 183.181 652.869 182.772C652.869 182.345 652.971 181.971 653.176 181.651C653.389 181.331 653.722 181.082 654.176 180.904C654.629 180.718 655.221 180.624 655.95 180.624H657.857V181.838H656.177C655.688 181.838 655.35 181.918 655.163 182.078C654.985 182.238 654.896 182.438 654.896 182.678C654.896 182.945 654.998 183.159 655.203 183.319C655.416 183.47 655.705 183.545 656.07 183.545C656.417 183.545 656.728 183.465 657.004 183.305C657.279 183.136 657.479 182.892 657.604 182.572L657.924 183.532C657.773 183.994 657.497 184.346 657.097 184.586C656.697 184.826 656.181 184.946 655.55 184.946Z" fill="white"/>
<path id="Vector_49" d="M648.923 184.946C648.15 184.946 647.46 184.79 646.856 184.479C646.251 184.159 645.775 183.719 645.429 183.159C645.091 182.598 644.922 181.963 644.922 181.251C644.922 180.531 645.091 179.895 645.429 179.344C645.775 178.784 646.251 178.348 646.856 178.037C647.46 177.717 648.15 177.557 648.923 177.557C649.679 177.557 650.337 177.717 650.897 178.037C651.457 178.348 651.871 178.797 652.138 179.384L650.524 180.251C650.337 179.913 650.101 179.664 649.817 179.504C649.541 179.344 649.239 179.264 648.91 179.264C648.554 179.264 648.234 179.344 647.95 179.504C647.665 179.664 647.438 179.891 647.269 180.184C647.109 180.478 647.029 180.833 647.029 181.251C647.029 181.669 647.109 182.025 647.269 182.318C647.438 182.612 647.665 182.838 647.95 182.998C648.234 183.159 648.554 183.239 648.91 183.239C649.239 183.239 649.541 183.163 649.817 183.012C650.101 182.852 650.337 182.598 650.524 182.252L652.138 183.132C651.871 183.71 651.457 184.159 650.897 184.479C650.337 184.79 649.679 184.946 648.923 184.946Z" fill="white"/>
</g>
</g>
<g id="Klick6">
<g id="text120">
<path id="Vector_50" d="M797.602 268.684C797.104 268.684 796.674 268.516 796.313 268.18C795.965 267.832 795.79 267.39 795.79 266.854C795.79 266.319 795.965 265.89 796.313 265.566C796.674 265.23 797.104 265.062 797.602 265.062C798.112 265.062 798.542 265.23 798.89 265.566C799.239 265.89 799.413 266.319 799.413 266.854C799.413 267.39 799.239 267.832 798.89 268.18C798.542 268.516 798.112 268.684 797.602 268.684Z" fill="black"/>
<path id="Vector_51" d="M789.139 268.759C788.256 268.759 787.44 268.597 786.693 268.274C785.959 267.937 785.355 267.464 784.882 266.854L786.563 264.838C786.924 265.311 787.303 265.672 787.702 265.921C788.1 266.157 788.529 266.276 788.99 266.276C790.222 266.276 790.839 265.554 790.839 264.109V257.891H786.245V255.464H793.845V263.941C793.845 265.56 793.447 266.767 792.65 267.564C791.853 268.361 790.683 268.759 789.139 268.759Z" fill="black"/>
<path id="Vector_52" d="M773.96 268.759C773.051 268.759 772.148 268.641 771.252 268.404C770.368 268.155 769.609 267.807 768.974 267.359L770.169 265.043C770.667 265.404 771.24 265.69 771.887 265.902C772.547 266.114 773.213 266.22 773.885 266.22C774.644 266.22 775.242 266.07 775.678 265.771C776.113 265.473 776.331 265.056 776.331 264.52C776.331 264.184 776.244 263.885 776.07 263.624C775.895 263.363 775.584 263.163 775.136 263.026C774.7 262.89 774.084 262.821 773.287 262.821H769.945L770.617 255.464H778.591V257.891H771.7L773.269 256.51L772.802 261.757L771.233 260.375H773.997C775.292 260.375 776.331 260.555 777.115 260.916C777.912 261.265 778.491 261.744 778.852 262.354C779.213 262.964 779.393 263.655 779.393 264.427C779.393 265.199 779.201 265.915 778.815 266.574C778.429 267.222 777.831 267.751 777.022 268.162C776.225 268.56 775.204 268.759 773.96 268.759Z" fill="black"/>
<path id="Vector_53" d="M762.604 268.759C761.508 268.759 760.549 268.597 759.728 268.274C758.906 267.937 758.265 267.471 757.805 266.873C757.344 266.263 757.114 265.554 757.114 264.744C757.114 263.935 757.338 263.251 757.786 262.69C758.246 262.118 758.888 261.688 759.709 261.402C760.531 261.103 761.496 260.954 762.604 260.954C763.724 260.954 764.695 261.103 765.516 261.402C766.351 261.688 766.992 262.118 767.44 262.69C767.9 263.251 768.131 263.935 768.131 264.744C768.131 265.554 767.9 266.263 767.44 266.873C766.979 267.471 766.332 267.937 765.498 268.274C764.676 268.597 763.711 268.759 762.604 268.759ZM762.604 266.537C763.363 266.537 763.96 266.369 764.396 266.033C764.844 265.697 765.068 265.236 765.068 264.651C765.068 264.066 764.844 263.612 764.396 263.288C763.96 262.952 763.363 262.784 762.604 262.784C761.857 262.784 761.265 262.952 760.83 263.288C760.394 263.612 760.176 264.066 760.176 264.651C760.176 265.236 760.394 265.697 760.83 266.033C761.265 266.369 761.857 266.537 762.604 266.537ZM762.604 262.485C761.595 262.485 760.711 262.348 759.952 262.074C759.205 261.8 758.62 261.402 758.197 260.879C757.786 260.344 757.58 259.709 757.58 258.974C757.58 258.203 757.792 257.543 758.215 256.995C758.639 256.435 759.23 256.005 759.989 255.707C760.749 255.395 761.62 255.24 762.604 255.24C763.612 255.24 764.489 255.395 765.236 255.707C765.996 256.005 766.587 256.435 767.01 256.995C767.446 257.543 767.664 258.203 767.664 258.974C767.664 259.709 767.452 260.344 767.029 260.879C766.618 261.402 766.033 261.8 765.274 262.074C764.514 262.348 763.624 262.485 762.604 262.485ZM762.604 260.711C763.238 260.711 763.736 260.568 764.097 260.282C764.471 259.995 764.658 259.603 764.658 259.105C764.658 258.582 764.465 258.178 764.079 257.891C763.705 257.605 763.213 257.462 762.604 257.462C762.006 257.462 761.52 257.605 761.147 257.891C760.774 258.178 760.587 258.582 760.587 259.105C760.587 259.603 760.767 259.995 761.128 260.282C761.489 260.568 761.981 260.711 762.604 260.711Z" fill="black"/>
</g>
</g>
</g>
</g>
</g>
</g>
</g>
</g>
</svg>
